<svg id="Layer_1" data-name="Layer 1" xmlns="http://www.w3.org/2000/svg" viewBox="0 0 50 50"><g id="SKULL"><path d="M23.22,2.08c-.59.09-1.77.25-2.93.46-.68.13-1.33.37-2,.52a22.23,22.23,0,0,0-2.6.56,15.92,15.92,0,0,0-4.58,2.49,5.15,5.15,0,0,0-2.25,4.22,9.63,9.63,0,0,1-.38,3.41,4.74,4.74,0,0,0-.16,1.6c0,1.87,0,3.73,0,5.59a5.56,5.56,0,0,0,.08.7c.25,1.53.48,3.06.75,4.59a.86.86,0,0,0,.29.5c.43.34.94.59,1.34,1,.7.63,1.38,1.29,2,2a3.32,3.32,0,0,1,.83,1.28,12.4,12.4,0,0,1,.17,2.2c0,1,0,2.1.16,3.13.26,2,.62,4,1,6,0,.2.26.38.44.53a6.13,6.13,0,0,1,.86.71,11.19,11.19,0,0,0,3.44,2.79,10.65,10.65,0,0,0,3.73,1.18,17.06,17.06,0,0,0,4.87.54,4.44,4.44,0,0,0,1.9-.65c.94-.65,1.73-1.47,2.61-2.18.58-.47,1.19-.91,1.81-1.33,1.41-.94,2.66-2,3-3.73a9.67,9.67,0,0,0,.3-3.18,10.81,10.81,0,0,1,.23-2.3,11.94,11.94,0,0,0,.11-2.73c-.18-1.24.32-2.37.38-3.55,0-.86.57-1.05,1.13-1.35,1.39-.76,2.7-1.55,2.8-3.35.12-2.09.44-4.18.5-6.27,0-1.35-.27-2.71-.37-4.06a19.53,19.53,0,0,0-1.19-5.84,4.82,4.82,0,0,0-3-3c-1-.35-2.07-.66-3.13-.93-.86-.22-1.74-.36-2.61-.52-.4-.07-.81-.06-1.2-.16A43.15,43.15,0,0,0,23.22,2.08Z"/><path d="M23.22,2.08a42.17,42.17,0,0,1,8.25.82c.39.1.81.09,1.21.16.87.16,1.75.29,2.61.51,1.05.27,2.1.59,3.12.94a4.81,4.81,0,0,1,3,3,19.21,19.21,0,0,1,1.18,5.84A39.76,39.76,0,0,1,43,17.38c-.06,2.09-.38,4.18-.49,6.27-.11,1.8-1.41,2.58-2.8,3.35-.57.31-1.1.5-1.14,1.35-.05,1.18-.55,2.31-.37,3.55a12.54,12.54,0,0,1-.11,2.73,10.75,10.75,0,0,0-.23,2.3,9.67,9.67,0,0,1-.31,3.18c-.3,1.73-1.54,2.79-2.95,3.73a21.59,21.59,0,0,0-1.81,1.33c-.88.71-1.68,1.53-2.61,2.17a4.32,4.32,0,0,1-1.9.66,17.17,17.17,0,0,1-4.88-.54,10.67,10.67,0,0,1-3.72-1.18,11.07,11.07,0,0,1-3.44-2.79,5.6,5.6,0,0,0-.87-.71c-.17-.15-.4-.33-.44-.53-.35-2-.7-4-1-6-.14-1-.1-2.09-.15-3.13a12.4,12.4,0,0,0-.17-2.2,3.28,3.28,0,0,0-.84-1.28,25.3,25.3,0,0,0-2-2c-.4-.36-.9-.61-1.33-1a.93.93,0,0,1-.3-.5c-.26-1.53-.5-3.06-.74-4.59a4.19,4.19,0,0,1-.09-.7c0-1.87,0-3.73,0-5.59a5.38,5.38,0,0,1,.16-1.61,9.56,9.56,0,0,0,.39-3.4,5.14,5.14,0,0,1,2.25-4.22,15.63,15.63,0,0,1,4.57-2.49,22,22,0,0,1,2.61-.56c.67-.15,1.32-.39,2-.52C21.45,2.33,22.63,2.17,23.22,2.08Zm11.3,31c0-.52,0-1,0-1.49,0-1.13.1-2.26.13-3.39,0-.52.37-.45.72-.43s.47.12.64.05c.68-.3,1.35-.66,2-1s1.3-.72,2-1a2.41,2.41,0,0,0,1.48-1.67,23.83,23.83,0,0,0,.42-3.26c.07-.92,0-1.84,0-2.76,0-.56.14-1.13.1-1.68-.09-1.14-.25-2.27-.38-3.41a22.76,22.76,0,0,0-.31-2.5,22.87,22.87,0,0,0-.91-2.8,4.85,4.85,0,0,0-.84-1.42c-.86-1-2.19-1.15-3.37-1.5a16.47,16.47,0,0,0-4.1-.89c-1.31-.05-2.6-.42-3.91-.58a22.19,22.19,0,0,0-2.58-.15,32.71,32.71,0,0,0-4.32.06A27.08,27.08,0,0,0,17,4.3c-1.39.43-2.74,1-4.1,1.51a1.1,1.1,0,0,0-.42.32c-.43.47-.79,1-1.26,1.43a4.22,4.22,0,0,0-1.49,4.18,14.7,14.7,0,0,1-.27,4c-.06.8-.29,1.59-.27,2.37.05,1.31.26,2.61.36,3.92.08,1,.11,1.95.15,2.93a1.45,1.45,0,0,0,.86,1.47,20.63,20.63,0,0,0,2.9,1.07,22.32,22.32,0,0,0,3.27.42c.75.06.91.25.6.92a.73.73,0,0,0,0,.36c.07.67.18,1.33.22,2s0,1.15,0,1.72.29.92,1,.72c.29-.08.53-.32.82-.37a2.31,2.31,0,0,1,1.08,0c.24.09.39.42.58.63,0-.06.05-.13.08-.19a8.16,8.16,0,0,1,1.63-.07c.41.07.59,0,.82-.3.35-.53.81-.53,1.29-.1.28.25.59.47.89.7,0-.06,0-.11,0-.17a7.38,7.38,0,0,1,1.44-.3,16.75,16.75,0,0,1,1.86.19.71.71,0,0,0,.43-.08,2.15,2.15,0,0,1,2.2-.2c.22.1.55,0,.83-.07s.35-.16.43-.11C33.39,33.56,33.92,33.22,34.52,33.1Zm-.15,5.52c.1.73-.08,1.25-.95,1.31a6.26,6.26,0,0,1,0,.87.65.65,0,0,1-.27.44c-.88.31-1.77.58-2.7.89-.11.87-.48,1.18-1.14.81a.91.91,0,0,0-1.33.3.75.75,0,0,1-1.12.25,1,1,0,0,0-1.47.21l-1-1.43c-.66.68-1.35.45-1.82-.62-.2,0-.48,0-.62.12-.53.46-.82.09-1.12-.24a1.41,1.41,0,0,0-1.07-.36,1.87,1.87,0,0,1-.92-.25,4.68,4.68,0,0,1-.78-.78,5.14,5.14,0,0,1-.53.68A.62.62,0,0,1,17,41a.63.63,0,0,1-.32-.45c-.12-1.24-.21-2.48-.28-3.73,0-.63.05-1.28,0-1.9-.18-1.58-.05-3.2-1-4.66-.32-.48-.52-.55-.82-.49.08,1.14.16,2.21.22,3.28s.07,2.18.22,3.26c.18,1.33.59,2.64.71,4A3.23,3.23,0,0,0,17,43c.06,0,.09.09.15.13a31.87,31.87,0,0,0,3,2.32,9.09,9.09,0,0,0,2.64.86,19.86,19.86,0,0,0,5.15.53,4,4,0,0,0,3-1.18A18.55,18.55,0,0,1,34.18,43a4.68,4.68,0,0,0,2.38-3.1,22,22,0,0,0,.28-3c.08-2,.13-3.94.13-5.9a22,22,0,0,0-.24-2.39,4.49,4.49,0,0,0-.75.23c-.15.1-.34.29-.35.44,0,1,0,1.94,0,2.91a2.46,2.46,0,0,1,0,1,2.65,2.65,0,0,0-.14,1.94,16.92,16.92,0,0,1,.05,2.37C35.57,38.26,35.09,38.49,34.37,38.62Zm-6.27-4c0,.33-.11.94.13,1.12a4.74,4.74,0,0,0,1.58.51V34.62Zm-1-.38c-.38.18-.88.26-1,.51a1.3,1.3,0,0,0,.09,1.12c.14.21.66.24,1,.22.11,0,.27-.44.25-.66a6.82,6.82,0,0,0-.34-1.19Zm-3.28,1.67c.42-.1,1-.08,1.14-.31.41-.68.25-.89-.86-1.59C23.24,34.47,23.81,35.14,23.87,35.91Zm-1.18-1.25c-.45.37-.75.86-.43,1.35.18.27.69.34,1,.51l.13-.18c-.36-.52,0-1.34-.75-1.68Zm6.1,6.84c-.07,1,.12,1.2,1,1.24C30.21,41.6,30.05,41.38,28.79,41.5Zm-10.16-2c-.05.83.14,1.17.68,1.1a.87.87,0,0,0,.63-.53c.09-.52-.3-.67-1.31-.57Zm4.57,2.69c.65,0,1-.28.87-.84-.05-.26-.3-.64-.51-.68-.43-.07-.58.54-.36,1.52Zm-2.11-.78c.67-.07,1-.46.93-1-.11-.72-.66-.32-1.13-.41C21,40.53,21,41,21.09,41.44ZM32,39.9c-.13,1.07.12,1.29,1.15,1.06.06-1-.07-1.12-1.15-1.06Zm-4.52,2-.31,0c-.1.22-.31.45-.28.66a2.3,2.3,0,0,0,.4.73,2.71,2.71,0,0,0,.63-.79c.05-.14-.28-.4-.44-.61Zm5.39-6.51.23-.13A3.74,3.74,0,0,0,33,34.18a1,1,0,0,0-.77,0,.77.77,0,0,0-.09.75c.12.21.47.3.72.44Zm-2.67-1.32c.19.55,0,1.12.71,1.21s.59-.54.57-.77c-.09-.69-.71-.31-1.28-.44ZM18,35.28A5.92,5.92,0,0,0,19,34.8c.11-.08.09-.54,0-.55A8,8,0,0,0,18,34.06Zm7,6.45c.07.44.13.79.18,1.12h1.07c0-.72-.43-1-1.25-1.12Zm8.33-2.13c.89-.09,1-.21.78-1-1.1-.08-1.15,0-.78,1Zm.64-6.12-.23.12a9.28,9.28,0,0,0,.1,1.06s.4.08.46,0,.34-.49.28-.68-.4-.34-.61-.5Zm-13.1.88c.09.45.09.9.67.88.15,0,.45-.35.42-.49-.12-.57-.62-.36-1.09-.39Zm9.67,6.33c-.07,1,0,1.06.74,1,.08-.83,0-.93-.74-.94ZM19.8,34.9c.46-.24.6-.55.29-.94a.51.51,0,0,0-.5-.06c-.38.39-.05.68.21,1Z" style="fill:#fff"/><path d="M34.52,33.1c-.6.12-1.13.46-1.71.09-.08-.06-.28.09-.43.11s-.61.17-.83.07a2.13,2.13,0,0,0-2.2.2.69.69,0,0,1-.42.07c-.63,0-1.25-.2-1.87-.19a7.91,7.91,0,0,0-1.43.3l0,.17c-.3-.23-.61-.45-.89-.7-.48-.42-.94-.43-1.29.1-.23.35-.41.37-.81.31a8.24,8.24,0,0,0-1.64.06l-.08.2c-.19-.22-.34-.55-.58-.63a2.31,2.31,0,0,0-1.08,0c-.28.06-.53.29-.82.37-.68.21-1,0-1-.72s0-1.15,0-1.72-.15-1.32-.22-2a.67.67,0,0,1,.05-.37c.3-.66.14-.86-.61-.92a22,22,0,0,1-3.26-.41,20.81,20.81,0,0,1-2.91-1.08,1.44,1.44,0,0,1-.86-1.47c0-1-.07-2-.14-2.93-.11-1.3-.32-2.61-.37-3.91,0-.79.21-1.58.27-2.37a14.73,14.73,0,0,0,.27-4A4.25,4.25,0,0,1,11.2,7.56a13.28,13.28,0,0,0,1.26-1.43,1.46,1.46,0,0,1,.42-.32c1.36-.51,2.71-1.07,4.1-1.5a26.05,26.05,0,0,1,4.33-1.06,29.63,29.63,0,0,1,4.32-.06,22.18,22.18,0,0,1,2.58.14c1.31.16,2.6.53,3.91.58a16.66,16.66,0,0,1,4.11.9c1.17.34,2.5.5,3.36,1.49a4.85,4.85,0,0,1,.84,1.42,20.31,20.31,0,0,1,.91,2.8,21.07,21.07,0,0,1,.31,2.5c.13,1.14.3,2.27.38,3.41,0,.56-.09,1.12-.1,1.68,0,.92,0,1.84,0,2.76a23.81,23.81,0,0,1-.41,3.26A2.46,2.46,0,0,1,40,25.81c-.67.31-1.32.69-2,1s-1.33.7-2,1c-.17.07-.42,0-.64-.05s-.7-.09-.72.43c0,1.13-.09,2.27-.13,3.4C34.5,32.1,34.52,32.58,34.52,33.1Zm-4-20.26A2.24,2.24,0,0,0,28,15.07a9,9,0,0,0,0,2.65,3.86,3.86,0,0,0,2.18,3.41,3.22,3.22,0,0,1,.84.53,6.4,6.4,0,0,0,3.53,1.72,3.14,3.14,0,0,0,2.81-.54,4.48,4.48,0,0,1,1.4-1,.85.85,0,0,0,.61-.81,6.15,6.15,0,0,0-.07-1.42c-.14-1-.34-2-.44-3-.18-1.65-.58-2-2.13-2.34l-4.61-1.06C31.64,13.05,31.09,13,30.55,12.84Zm-18.7,5.52c.14-.12.24-.21.35-.29a.56.56,0,0,1,.91.33,5.67,5.67,0,0,1,.13,1.35,6.08,6.08,0,0,0,.81,3.47,1.4,1.4,0,0,0,1.45.88,8.66,8.66,0,0,0,1,0,10.06,10.06,0,0,0,2.61-.5,19.53,19.53,0,0,0,2.73-1.72,5.12,5.12,0,0,0,2.35-5.49,1.6,1.6,0,0,0-.51-.73c-.31-.31-.71-.55-1-.86a3,3,0,0,0-2.34-.94,14.09,14.09,0,0,0-6,1.54,19,19,0,0,0-2.21,1.44A1,1,0,0,0,11.85,18.36ZM25.4,24.82c.22.42.44.81.61,1.22s.33,1.06.55,1.57.6.58.94.1a1,1,0,0,0,.15-.61,14.57,14.57,0,0,0-1.4-6.28,1.55,1.55,0,0,0-1.07-.74c-.26,0-.58.52-.85.83a.72.72,0,0,0-.1.36c-.23,1.32-.49,2.62-.67,3.94a14.31,14.31,0,0,0-.13,2.53c0,.28.35.55.54.82.19-.2.48-.38.56-.62C24.84,27,25.09,25.94,25.4,24.82Z"/><path d="M34.37,38.62c.72-.13,1.2-.35,1.12-1.14a16.89,16.89,0,0,0-.05-2.37,2.68,2.68,0,0,1,.14-2,2.4,2.4,0,0,0,0-1c0-1,0-1.94,0-2.91a.74.74,0,0,1,.35-.44,3.72,3.72,0,0,1,.75-.23A21.73,21.73,0,0,1,37,31c0,2,0,3.93-.13,5.9a22.17,22.17,0,0,1-.28,3A4.72,4.72,0,0,1,34.18,43,18.55,18.55,0,0,0,31,45.65a4,4,0,0,1-3,1.18,19.86,19.86,0,0,1-5.15-.53,9.09,9.09,0,0,1-2.64-.86,33.62,33.62,0,0,1-3-2.32c-.06,0-.09-.1-.15-.14a3.2,3.2,0,0,1-1.29-2.69c-.11-1.34-.53-2.65-.71-4-.15-1.07-.15-2.17-.22-3.25s-.14-2.14-.22-3.28c.3-.06.5,0,.82.49,1,1.46.87,3.08,1,4.65.07.63,0,1.28,0,1.91.07,1.24.16,2.49.28,3.73A.63.63,0,0,0,17,41a.62.62,0,0,0,.51-.18,5.45,5.45,0,0,0,.53-.69,4.46,4.46,0,0,0,.78.79,2,2,0,0,0,.92.25,1.36,1.36,0,0,1,1.07.36c.3.33.59.7,1.12.24.14-.12.42-.09.62-.13.47,1.08,1.16,1.31,1.82.63l1,1.43a.94.94,0,0,1,1.47-.21A.74.74,0,0,0,28,43.23a.91.91,0,0,1,1.33-.29c.66.37,1,.05,1.14-.82.93-.3,1.82-.57,2.7-.89.13,0,.24-.27.27-.43a6.4,6.4,0,0,0,0-.88C34.29,39.87,34.47,39.35,34.37,38.62ZM21.83,43.7l.11-.16a8.57,8.57,0,0,1,.89.33c.37.19.71.43,1.08.63a.4.4,0,0,0,.34,0c.05,0,.08-.19.05-.27a4.16,4.16,0,0,0-2.5-1.18.49.49,0,0,0-.29.34c0,.1.21.21.32.31Zm6.83.83a3.29,3.29,0,0,0,.7-.05c.52-.18,1.05-.39,1.56-.6a3.23,3.23,0,0,0,.43-.29c-.17-.1-.4-.32-.5-.28C30.14,43.61,29.22,43.5,28.66,44.53Z"/><path d="M28.1,34.62h1.71v1.63a4.74,4.74,0,0,1-1.58-.51C28,35.56,28.13,35,28.1,34.62Z"/><path d="M27.15,34.24a6.82,6.82,0,0,1,.34,1.19c0,.22-.14.65-.25.66-.34,0-.86,0-1-.22a1.3,1.3,0,0,1-.09-1.12C26.27,34.5,26.77,34.42,27.15,34.24Z"/><path d="M23.87,35.91c-.06-.76-.63-1.43.28-1.9,1.11.7,1.27.91.86,1.59C24.87,35.83,24.29,35.81,23.87,35.91Z"/><path d="M22.69,34.66c.8.34.39,1.16.75,1.68l-.13.18c-.36-.16-.87-.24-1-.51C21.94,35.52,22.24,35,22.69,34.66Z"/><path d="M28.79,41.5c1.26-.12,1.42.1,1,1.24C28.91,42.7,28.71,42.47,28.79,41.5Z"/><path d="M18.63,39.53c1-.1,1.4,0,1.31.57a.85.85,0,0,1-.63.53C18.77,40.7,18.58,40.36,18.63,39.53Z"/><path d="M23.2,42.22c-.22-1-.07-1.59.36-1.52.21,0,.46.42.51.68C24.17,41.94,23.85,42.22,23.2,42.22Z"/><path d="M21.09,41.44C21,41,21,40.52,20.89,40c.47.09,1-.31,1.13.41C22.12,41,21.76,41.37,21.09,41.44Z"/><path d="M32,39.9c1.08-.06,1.21.06,1.15,1.07C32.09,41.2,31.84,41,32,39.9Z"/><path d="M27.45,41.89c.16.21.49.47.44.61a2.71,2.71,0,0,1-.63.79,2.2,2.2,0,0,1-.4-.73c0-.2.18-.44.28-.66Z"/><path d="M32.84,35.38c-.25-.14-.6-.23-.72-.44a.77.77,0,0,1,.09-.75,1,1,0,0,1,.77,0,3.61,3.61,0,0,1,.09,1.05Z"/><path d="M30.17,34.05c.57.13,1.19-.26,1.28.45,0,.22,0,.83-.57.76S30.36,34.6,30.17,34.05Z"/><path d="M18,35.28V34.06a9.88,9.88,0,0,1,1.11.19s.06.47,0,.55A5.92,5.92,0,0,1,18,35.28Z"/><path d="M24.9,41.73c.82.12,1.25.4,1.25,1.12H25.08C25,42.52,25,42.17,24.9,41.73Z"/><path d="M33.23,39.6c-.37-1-.32-1.09.78-1C34.21,39.39,34.12,39.51,33.23,39.6Z"/><path d="M33.87,33.48c.21.16.54.29.61.5s-.13.48-.28.68-.46,0-.46,0a9.32,9.32,0,0,1-.1-1Z"/><path d="M20.77,34.36c.47,0,1-.18,1.09.4,0,.14-.27.48-.42.48C20.86,35.26,20.86,34.81,20.77,34.36Z"/><path d="M30.44,40.7c.74,0,.82.11.74.94C30.43,41.75,30.37,41.67,30.44,40.7Z"/><path d="M19.8,34.9c-.26-.32-.59-.61-.21-1a.56.56,0,0,1,.5.06C20.4,34.35,20.25,34.66,19.8,34.9Z"/><path d="M30.55,12.84c.54.11,1.09.21,1.63.33l4.62,1.07c1.55.35,1.94.69,2.12,2.34.1,1,.3,2,.44,3A6.15,6.15,0,0,1,39.43,21a.84.84,0,0,1-.6.81,4.27,4.27,0,0,0-1.4,1,3.17,3.17,0,0,1-2.82.54,6.45,6.45,0,0,1-3.53-1.73,3.62,3.62,0,0,0-.84-.53,3.81,3.81,0,0,1-2.17-3.4,9,9,0,0,1,0-2.65A2.24,2.24,0,0,1,30.55,12.84Zm4.76,9.65a2.66,2.66,0,0,0,2.52-.88,3.46,3.46,0,0,0-2.52.88Z" style="fill:#fff"/><path d="M11.85,18.36a1.05,1.05,0,0,1,.28-1.53,19.8,19.8,0,0,1,2.2-1.44,14.33,14.33,0,0,1,6-1.55,3,3,0,0,1,2.34.94c.3.32.69.56,1,.87a1.6,1.6,0,0,1,.51.73,5.12,5.12,0,0,1-2.35,5.49,21.16,21.16,0,0,1-2.73,1.72,10.06,10.06,0,0,1-2.61.5,8.81,8.81,0,0,1-1,0,1.4,1.4,0,0,1-1.44-.88,6.07,6.07,0,0,1-.81-3.47,6.24,6.24,0,0,0-.13-1.35.56.56,0,0,0-.91-.33C12.09,18.15,12,18.24,11.85,18.36Zm4.43,4.76C15,22,15,22,14.37,22.25c.39.78.84,1,1.9.87Z" style="fill:#fff"/><path d="M25.4,24.82c-.31,1.12-.56,2.13-.87,3.12-.08.24-.37.41-.56.62-.19-.27-.53-.54-.54-.82a14.31,14.31,0,0,1,.13-2.53c.18-1.32.44-2.62.67-3.94a.72.72,0,0,1,.1-.36c.27-.31.59-.85.85-.83a1.55,1.55,0,0,1,1.07.74,14.54,14.54,0,0,1,1.4,6.28,1,1,0,0,1-.15.61c-.34.47-.69.45-.94-.11S26.22,26.55,26,26,25.62,25.24,25.4,24.82Z" style="fill:#fff"/><path d="M21.83,43.7c-.11-.1-.32-.21-.32-.31a.47.47,0,0,1,.29-.34,4.16,4.16,0,0,1,2.5,1.18c0,.08,0,.25-.05.27a.5.5,0,0,1-.34,0c-.37-.2-.71-.45-1.08-.64a6.72,6.72,0,0,0-.89-.32Z" style="fill:#fff"/><path d="M28.66,44.53c.55-1,1.48-.92,2.19-1.22.1,0,.33.18.5.28a3.23,3.23,0,0,1-.43.29c-.51.21-1,.42-1.56.6A3.29,3.29,0,0,1,28.66,44.53Z" style="fill:#fff"/><path d="M35.31,22.49a3.44,3.44,0,0,1,2.52-.88A2.66,2.66,0,0,1,35.31,22.49Z"/><path d="M16.27,23.12c-1.06.12-1.51-.09-1.9-.87C15,22,15,22,16.27,23.12Z"/></g></svg>