<svg xmlns="http://www.w3.org/2000/svg" viewBox="0 0 1120.93 212.97"><g id="NAV_LAYER"><g id="NAV_SKULL"><path d="M124.59,50.29c-1.47.23-4.38.61-7.25,1.15-1.66.31-3.26.9-4.91,1.28A54.53,54.53,0,0,0,106,54.1a39.22,39.22,0,0,0-11.28,6.13c-3.37,2.72-5.66,6-5.56,10.42a23.26,23.26,0,0,1-.94,8.4,12.2,12.2,0,0,0-.39,4c0,4.59,0,9.18,0,13.77A10.21,10.21,0,0,0,88,98.53c.6,3.77,1.19,7.54,1.83,11.31a2.22,2.22,0,0,0,.74,1.24c1.05.83,2.29,1.45,3.28,2.34,1.74,1.56,3.42,3.19,5,4.91a7.87,7.87,0,0,1,2,3.17,28.67,28.67,0,0,1,.42,5.42c.13,2.57,0,5.17.39,7.72.66,4.93,1.53,9.84,2.39,14.75.09.48.66.93,1.09,1.31a16.26,16.26,0,0,1,2.14,1.75c2.23,3,5.31,5,8.47,6.89a26.29,26.29,0,0,0,9.2,2.9c4,.67,7.93,1.83,12,1.34a11,11,0,0,0,4.69-1.62c2.3-1.59,4.27-3.61,6.44-5.38,1.42-1.16,2.92-2.24,4.45-3.26,3.48-2.32,6.56-4.93,7.3-9.21.44-2.58,1.17-5.1.76-7.84-.28-1.83.42-3.77.57-5.68a31.09,31.09,0,0,0,.26-6.73c-.45-3.07.8-5.85.93-8.76.09-2.11,1.41-2.58,2.79-3.33,3.43-1.89,6.65-3.82,6.91-8.27.29-5.16,1.08-10.3,1.22-15.47.09-3.33-.66-6.67-.91-10a47.94,47.94,0,0,0-2.92-14.41,11.9,11.9,0,0,0-7.46-7.32c-2.53-.87-5.11-1.64-7.71-2.3-2.12-.55-4.29-.89-6.44-1.28-1-.17-2-.14-3-.38C138.75,50.76,132.4,50.68,124.59,50.29Z"/><path d="M124.59,50.29c7.81.39,14.16.47,20.35,2,1,.25,2,.21,3,.39,2.15.39,4.32.72,6.44,1.27,2.6.67,5.18,1.44,7.71,2.31a11.87,11.87,0,0,1,7.46,7.32A47.88,47.88,0,0,1,172.44,78c.25,3.35,1,6.69.91,10-.14,5.16-.93,10.31-1.22,15.47-.25,4.44-3.48,6.38-6.91,8.26-1.38.76-2.7,1.23-2.79,3.34-.13,2.91-1.38,5.69-.93,8.76a31.07,31.07,0,0,1-.26,6.73c-.15,1.9-.84,3.85-.57,5.68.41,2.74-.31,5.26-.76,7.84-.74,4.27-3.81,6.89-7.29,9.21a53,53,0,0,0-4.46,3.26c-2.18,1.76-4.13,3.79-6.43,5.37a10.81,10.81,0,0,1-4.7,1.62c-4.09.49-8-.66-12-1.33a26.3,26.3,0,0,1-9.2-2.91c-3.16-1.85-6.24-3.89-8.47-6.88a14.28,14.28,0,0,0-2.14-1.75c-.43-.38-1-.83-1.08-1.31-.87-4.91-1.74-9.82-2.4-14.76-.34-2.54-.26-5.14-.39-7.71a30.53,30.53,0,0,0-.41-5.43,8,8,0,0,0-2.06-3.16c-1.57-1.72-3.25-3.35-5-4.91-1-.89-2.23-1.51-3.29-2.34a2.21,2.21,0,0,1-.74-1.25c-.64-3.77-1.23-7.53-1.83-11.3a11.48,11.48,0,0,1-.21-1.74c0-4.6,0-9.19,0-13.78a12.42,12.42,0,0,1,.39-4,23,23,0,0,0,.94-8.4c-.09-4.43,2.17-7.68,5.56-10.42A38.77,38.77,0,0,1,106,54.1a54.1,54.1,0,0,1,6.44-1.38c1.65-.38,3.25-1,4.91-1.28C120.21,50.9,123.12,50.52,124.59,50.29Zm27.86,76.54c0-1.3,0-2.49,0-3.68.09-2.79.24-5.58.32-8.37,0-1.29.93-1.12,1.78-1.06.53,0,1.16.3,1.57.11,1.7-.74,3.34-1.61,5-2.45s3.22-1.79,4.89-2.56a6,6,0,0,0,3.66-4.13,60.27,60.27,0,0,0,1-8c.16-2.26,0-4.54,0-6.81,0-1.38.34-2.77.24-4.14-.2-2.81-.6-5.6-.93-8.41a55,55,0,0,0-.77-6.17,51.93,51.93,0,0,0-2.25-6.9A12.1,12.1,0,0,0,165,60.69c-2.12-2.43-5.41-2.83-8.3-3.67-3.29-1-6.56-2.08-10.13-2.22-3.23-.12-6.42-1-9.65-1.43a56,56,0,0,0-6.35-.35,77.43,77.43,0,0,0-10.67.14,65.68,65.68,0,0,0-10.67,2.62c-3.44,1.06-6.77,2.45-10.13,3.72a2.81,2.81,0,0,0-1,.79,41.86,41.86,0,0,1-3.12,3.53,10.43,10.43,0,0,0-3.68,10.31c.65,3.39-.41,6.55-.65,9.82-.15,2-.73,3.92-.66,5.85.11,3.22.63,6.44.89,9.66.19,2.4.26,4.82.35,7.23,0,1.58.51,3,2.13,3.62a51,51,0,0,0,7.16,2.65,55.32,55.32,0,0,0,8.06,1c1.85.15,2.23.64,1.49,2.27a1.74,1.74,0,0,0-.11.9c.17,1.64.44,3.27.55,4.91.09,1.4,0,2.82,0,4.23,0,1.71.71,2.28,2.39,1.79.71-.21,1.32-.78,2-.92a5.59,5.59,0,0,1,2.67,0c.59.2,1,1,1.43,1.55.06-.16.12-.32.19-.49a20.35,20.35,0,0,1,4-.15c1,.16,1.44.1,2-.75.87-1.31,2-1.3,3.19-.25.69.61,1.45,1.16,2.19,1.73,0-.15-.05-.28-.08-.42a17.74,17.74,0,0,1,3.54-.75,42.46,42.46,0,0,1,4.6.48,1.82,1.82,0,0,0,1-.19,5.28,5.28,0,0,1,5.43-.49c.53.24,1.36-.07,2.05-.17.37-.06.86-.41,1.06-.28C149.67,127.94,151,127.11,152.45,126.83Zm-.35,13.59c.22,1.8-.22,3.09-2.36,3.23a14,14,0,0,1,0,2.16,1.48,1.48,0,0,1-.66,1.08c-2.17.78-4.38,1.45-6.66,2.19-.28,2.15-1.19,2.92-2.81,2a2.25,2.25,0,0,0-3.28.74,1.82,1.82,0,0,1-2.76.62c-1.23-.79-2.35-1.05-3.64.53l-2.46-3.54c-1.63,1.68-3.32,1.12-4.48-1.53-.51.09-1.2,0-1.54.31-1.29,1.13-2,.21-2.77-.6a3.38,3.38,0,0,0-2.62-.89,4.62,4.62,0,0,1-2.27-.61,11.22,11.22,0,0,1-1.94-1.94,13,13,0,0,1-1.31,1.7,1.55,1.55,0,0,1-1.25.43,1.52,1.52,0,0,1-.79-1.1q-.43-4.59-.7-9.21c-.08-1.56.13-3.14,0-4.69-.43-3.9-.13-7.89-2.55-11.48-.81-1.19-1.3-1.37-2-1.21.19,2.8.38,5.44.55,8.08s.15,5.38.52,8c.46,3.3,1.48,6.53,1.77,9.84.24,2.69.75,5,3.17,6.64.14.09.23.24.36.34a81.94,81.94,0,0,0,7.46,5.72c1.9,1.16,4.24,1.57,6.51,2.12a49.39,49.39,0,0,0,12.71,1.31,9.9,9.9,0,0,0,7.44-2.91,45.36,45.36,0,0,1,8-6.44c3-1.94,5.25-4.23,5.86-7.65a57,57,0,0,0,.69-7.5c.19-4.85.32-9.71.32-14.56a56.56,56.56,0,0,0-.59-5.88,8.83,8.83,0,0,0-1.85.57,1.72,1.72,0,0,0-.87,1.08c-.08,2.39,0,4.79,0,7.17a6,6,0,0,1-.08,2.41,6.67,6.67,0,0,0-.36,4.8c.46,1.85,0,3.9.15,5.84S153.86,140.1,152.1,140.42Zm-15.47-9.85c.05.8-.28,2.32.3,2.77,1,.76,2.52.85,3.9,1.24v-4Zm-2.36-.94c-.93.43-2.17.63-2.47,1.25a3.21,3.21,0,0,0,.23,2.78c.33.5,1.63.57,2.48.53.25,0,.65-1.08.61-1.64a15.51,15.51,0,0,0-.85-2.92Zm-8.09,4.12c1-.25,2.46-.21,2.81-.76,1-1.69.62-2.19-2.12-3.92C124.63,130.21,126,131.86,126.18,133.75Zm-2.9-3.08c-1.12.92-1.87,2.12-1.07,3.33.44.67,1.71.84,2.6,1.24l.3-.43c-.87-1.29.13-3.31-1.84-4.14Zm15,16.86c-.18,2.4.29,3,2.41,3.07C141.83,147.78,141.44,147.25,138.32,147.53Zm-25.07-4.85c-.11,2,.34,2.88,1.67,2.72a2.2,2.2,0,0,0,1.57-1.31c.21-1.28-.73-1.66-3.24-1.41Zm11.27,6.64c1.61,0,2.41-.71,2.15-2.08-.12-.63-.73-1.57-1.26-1.67-1-.18-1.42,1.32-.89,3.75Zm-5.19-1.94c1.66-.17,2.53-1.14,2.3-2.52-.29-1.77-1.64-.77-2.8-1C119,145.14,119.16,146.21,119.33,147.38Zm26.83-3.8c-.32,2.66.3,3.2,2.84,2.64.14-2.48-.16-2.77-2.84-2.63ZM135,148.49l-.75,0c-.25.54-.76,1.11-.69,1.62a5.64,5.64,0,0,0,1,1.8,7.16,7.16,0,0,0,1.56-1.94c.12-.35-.71-1-1.11-1.52Zm13.31-16.06.57-.34a9.73,9.73,0,0,0-.22-2.6,2.38,2.38,0,0,0-1.9,0,1.88,1.88,0,0,0-.23,1.86c.29.51,1.17.73,1.78,1.07Zm-6.58-3.28c.46,1.37.11,2.78,1.75,3,1.42.17,1.45-1.34,1.39-1.89-.21-1.72-1.73-.76-3.14-1.09Zm-30.16,3a15.53,15.53,0,0,0,2.62-1.19c.27-.2.24-1.34.14-1.36a22.39,22.39,0,0,0-2.76-.48Zm17.16,15.91c.17,1.08.3,1.95.44,2.76h2.63c0-1.79-1.05-2.46-3.07-2.75Zm20.53-5.26c2.2-.22,2.42-.52,1.94-2.5-2.73-.18-2.84,0-1.94,2.5Zm1.6-15.1-.58.31a25.33,25.33,0,0,0,.25,2.61c0,.07,1,.18,1.13,0,.37-.49.84-1.22.69-1.69s-1-.83-1.5-1.23Zm-32.33,2.17c.22,1.11.23,2.21,1.65,2.18.38,0,1.13-.86,1.06-1.2-.3-1.42-1.53-.91-2.71-1Zm23.86,15.62c-.17,2.41,0,2.61,1.82,2.34.21-2,0-2.3-1.83-2.33Zm-26.25-14.29c1.13-.59,1.49-1.36.73-2.32a1.33,1.33,0,0,0-1.24-.15c-.95,1-.13,1.68.51,2.48Z" style="fill:#fff"/><path d="M152.45,126.83c-1.49.28-2.78,1.11-4.21.2-.19-.13-.69.22-1.05.27-.69.1-1.52.42-2.05.17a5.28,5.28,0,0,0-5.43.5,1.85,1.85,0,0,1-1.06.19,42.2,42.2,0,0,0-4.6-.48,17.65,17.65,0,0,0-3.53.75c0,.14,0,.27.07.41-.72-.58-1.49-1.11-2.18-1.72-1.19-1.05-2.32-1.07-3.19.24-.57.85-1,.91-2,.76a19.55,19.55,0,0,0-4,.15l-.2.48c-.47-.54-.83-1.35-1.42-1.55a5.6,5.6,0,0,0-2.67,0c-.71.13-1.31.71-2,.91-1.69.5-2.4-.07-2.4-1.78,0-1.41.08-2.83,0-4.24-.11-1.63-.38-3.26-.56-4.9a1.85,1.85,0,0,1,.11-.9c.75-1.64.36-2.12-1.49-2.28a55.18,55.18,0,0,1-8-1,50.11,50.11,0,0,1-7.16-2.66c-1.63-.66-2.08-2-2.14-3.61-.08-2.41-.15-4.83-.35-7.23-.25-3.23-.78-6.44-.89-9.67-.06-1.93.52-3.89.66-5.84.24-3.27,1.31-6.44.66-9.82a10.43,10.43,0,0,1,3.68-10.32A40.44,40.44,0,0,0,98,60.29a2.93,2.93,0,0,1,1-.78c3.36-1.28,6.69-2.66,10.12-3.72a64.91,64.91,0,0,1,10.67-2.62A77.43,77.43,0,0,1,130.53,53a56.22,56.22,0,0,1,6.36.35c3.23.41,6.41,1.31,9.64,1.43,3.57.14,6.85,1.25,10.13,2.21,2.89.85,6.18,1.24,8.3,3.68A12.13,12.13,0,0,1,167,64.22a51.41,51.41,0,0,1,2.24,6.9,55,55,0,0,1,.78,6.17c.32,2.8.72,5.59.93,8.41.1,1.37-.21,2.75-.24,4.14-.05,2.27.12,4.55-.05,6.81a59.07,59.07,0,0,1-1,8,6,6,0,0,1-3.65,4.13c-1.67.77-3.26,1.71-4.9,2.55s-3.29,1.72-5,2.46c-.42.18-1-.08-1.58-.11-.85-.06-1.74-.23-1.77,1.06-.08,2.79-.23,5.58-.33,8.37C152.42,124.34,152.45,125.53,152.45,126.83Zm-9.79-50c-4.09.2-5.63,1.77-6.2,5.51a22.31,22.31,0,0,0,.07,6.53c.49,3.58,1.61,6.75,5.36,8.41A8,8,0,0,1,144,98.59a15.82,15.82,0,0,0,8.71,4.24c2.35.29,4.91.66,7-1.33a10.82,10.82,0,0,1,3.45-2.56,2.1,2.1,0,0,0,1.5-2,14.81,14.81,0,0,0-.19-3.51c-.33-2.46-.82-4.91-1.08-7.39-.44-4.06-1.41-4.9-5.24-5.78l-11.38-2.62C145.35,77.36,144,77.11,142.66,76.83ZM96.52,90.45c.37-.3.61-.52.87-.7a1.37,1.37,0,0,1,2.25.8,14.06,14.06,0,0,1,.32,3.34,14.85,14.85,0,0,0,2,8.55,3.44,3.44,0,0,0,3.56,2.18,23.7,23.7,0,0,0,2.53,0c2.17-.32,4.5-.37,6.44-1.22,2.41-1.06,4.5-2.81,6.72-4.25,5.08-3.28,6.61-8,5.8-13.54a3.8,3.8,0,0,0-1.26-1.81c-.77-.77-1.74-1.35-2.49-2.13a7.43,7.43,0,0,0-5.78-2.32,34.82,34.82,0,0,0-14.82,3.82,43.06,43.06,0,0,0-5.45,3.54A2.58,2.58,0,0,0,96.52,90.45ZM130,106.39c.53,1,1.09,2,1.5,3,.51,1.27.8,2.63,1.36,3.87s1.48,1.44,2.32.26a2.5,2.5,0,0,0,.37-1.49c-.23-5.35-.92-10.64-3.45-15.49a3.84,3.84,0,0,0-2.64-1.84c-.64,0-1.44,1.28-2.1,2a1.83,1.83,0,0,0-.25.9c-.57,3.23-1.21,6.45-1.66,9.71a37.23,37.23,0,0,0-.31,6.24c0,.69.86,1.34,1.33,2,.47-.5,1.19-.93,1.37-1.52C128.58,111.65,129.2,109.16,130,106.39Z"/><path d="M152.1,140.42c1.76-.32,2.93-.85,2.76-2.81s.31-4-.15-5.83a6.7,6.7,0,0,1,.36-4.81,6,6,0,0,0,.08-2.4c0-2.39,0-4.79,0-7.17a1.76,1.76,0,0,1,.87-1.09,8.29,8.29,0,0,1,1.85-.56,54,54,0,0,1,.59,5.88c0,4.85-.13,9.71-.32,14.56a56.82,56.82,0,0,1-.69,7.49c-.61,3.42-2.87,5.72-5.86,7.65a45.41,45.41,0,0,0-8,6.45,9.94,9.94,0,0,1-7.44,2.91,49.4,49.4,0,0,1-12.71-1.32,22.62,22.62,0,0,1-6.51-2.12,80.07,80.07,0,0,1-7.46-5.71,3.82,3.82,0,0,0-.36-.34c-2.42-1.63-2.93-4-3.17-6.65-.29-3.3-1.31-6.54-1.77-9.83-.37-2.66-.35-5.36-.52-8s-.36-5.28-.55-8.09c.74-.16,1.23,0,2,1.21,2.42,3.59,2.12,7.59,2.55,11.48.17,1.55,0,3.14,0,4.7q.27,4.6.7,9.21a1.54,1.54,0,0,0,.79,1.1,1.56,1.56,0,0,0,1.25-.44,13.09,13.09,0,0,0,1.31-1.69,11.24,11.24,0,0,0,1.94,1.94,4.61,4.61,0,0,0,2.27.6,3.46,3.46,0,0,1,2.62.89c.75.81,1.48,1.74,2.77.6.34-.29,1-.21,1.54-.31,1.16,2.65,2.85,3.21,4.48,1.54L129.9,153c1.29-1.59,2.41-1.33,3.64-.53s2,.45,2.76-.63a2.25,2.25,0,0,1,3.28-.73c1.62.91,2.53.14,2.81-2,2.29-.73,4.5-1.41,6.66-2.19.33-.11.6-.68.66-1.07a14,14,0,0,0,0-2.16C151.88,143.51,152.32,142.22,152.1,140.42ZM121.15,153l.27-.4a20.68,20.68,0,0,1,2.2.82c.91.46,1.75,1.07,2.65,1.56a1.11,1.11,0,0,0,.84,0c.13-.06.21-.48.13-.66-.47-1.07-5-3.27-6.15-2.92a1.2,1.2,0,0,0-.72.84c0,.25.5.51.78.76ZM138,155a7.77,7.77,0,0,0,1.72-.13c1.31-.44,2.59-.95,3.87-1.48a6.19,6.19,0,0,0,1.06-.72c-.42-.24-1-.78-1.25-.67C141.65,152.73,139.37,152.48,138,155Z"/><path d="M136.63,130.57h4.2v4c-1.38-.39-2.93-.48-3.9-1.24C136.35,132.88,136.68,131.37,136.63,130.57Z"/><path d="M134.27,129.63a15.51,15.51,0,0,1,.85,2.92c0,.56-.36,1.62-.61,1.64-.85,0-2.15,0-2.48-.53a3.21,3.21,0,0,1-.23-2.78C132.1,130.26,133.35,130.06,134.27,129.63Z"/><path d="M126.18,133.75c-.15-1.88-1.55-3.54.69-4.68,2.74,1.73,3.14,2.23,2.12,3.91C128.64,133.54,127.22,133.49,126.18,133.75Z"/><path d="M123.27,130.67c2,.83,1,2.85,1.84,4.14l-.3.43c-.89-.39-2.16-.57-2.6-1.24C121.41,132.78,122.16,131.58,123.27,130.67Z"/><path d="M138.32,147.53c3.12-.28,3.51.25,2.41,3.07C138.6,150.51,138.13,149.93,138.32,147.53Z"/><path d="M113.25,142.68c2.51-.25,3.45.13,3.24,1.41a2.17,2.17,0,0,1-1.57,1.31C113.59,145.56,113.14,144.72,113.25,142.68Z"/><path d="M124.52,149.32c-.53-2.43-.17-3.93.89-3.75.53.1,1.14,1,1.26,1.68C126.93,148.62,126.13,149.31,124.52,149.32Z"/><path d="M119.33,147.38c-.17-1.18-.32-2.25-.5-3.53,1.16.24,2.51-.76,2.8,1C121.86,146.25,121,147.22,119.33,147.38Z"/><path d="M146.16,143.59c2.68-.15,3,.15,2.84,2.63C146.46,146.79,145.84,146.24,146.16,143.59Z"/><path d="M135,148.49c.4.52,1.23,1.17,1.11,1.53a7.13,7.13,0,0,1-1.56,1.93,5.54,5.54,0,0,1-1-1.8c-.07-.5.43-1.08.69-1.62Z"/><path d="M148.31,132.43c-.62-.34-1.49-.56-1.78-1.07a1.87,1.87,0,0,1,.23-1.85,2.34,2.34,0,0,1,1.9,0,9.62,9.62,0,0,1,.22,2.59Z"/><path d="M141.73,129.16c1.41.33,2.93-.63,3.14,1.1.06.55,0,2.06-1.39,1.89C141.84,131.94,142.19,130.52,141.73,129.16Z"/><path d="M111.57,132.2v-3a23.89,23.89,0,0,1,2.75.47c.1,0,.14,1.17-.13,1.36A15.18,15.18,0,0,1,111.57,132.2Z"/><path d="M128.73,148.12c2,.29,3.08,1,3.07,2.75h-2.64C129,150.06,128.9,149.19,128.73,148.12Z"/><path d="M149.26,142.85c-.9-2.54-.79-2.68,1.94-2.49C151.68,142.33,151.46,142.63,149.26,142.85Z"/><path d="M150.85,127.75c.53.4,1.34.72,1.5,1.23s-.32,1.2-.69,1.69c-.14.18-1.12.07-1.13,0a25.33,25.33,0,0,1-.25-2.61Z"/><path d="M118.53,129.93c1.18.06,2.41-.45,2.7,1,.08.34-.67,1.19-1,1.2C118.76,132.14,118.75,131,118.53,129.93Z"/><path d="M142.38,145.55c1.84,0,2,.29,1.83,2.34C142.38,148.15,142.22,148,142.38,145.55Z"/><path d="M116.14,131.26c-.64-.8-1.45-1.51-.52-2.47a1.36,1.36,0,0,1,1.24.15C117.63,129.9,117.26,130.67,116.14,131.26Z"/><path d="M142.66,76.83c1.34.28,2.69.53,4,.83l11.39,2.62c3.82.87,4.8,1.71,5.23,5.78.26,2.47.76,4.92,1.09,7.39a16,16,0,0,1,.19,3.51,2.1,2.1,0,0,1-1.5,2,10.86,10.86,0,0,0-3.46,2.56c-2,2-4.6,1.62-6.94,1.33A15.88,15.88,0,0,1,144,98.61a7.92,7.92,0,0,0-2.06-1.31c-3.76-1.66-4.88-4.83-5.37-8.41a22.66,22.66,0,0,1-.07-6.53C137,78.6,138.57,77,142.66,76.83Zm11.74,23.81c2.55.22,4.54-.19,6.21-2.18a8.5,8.5,0,0,0-6.21,2.18Z" style="fill:#fff"/><path d="M96.52,90.45a2.59,2.59,0,0,1,.71-3.77,46,46,0,0,1,5.43-3.55,35,35,0,0,1,14.83-3.81,7.42,7.42,0,0,1,5.78,2.32c.75.77,1.72,1.36,2.49,2.12A3.92,3.92,0,0,1,127,85.58c.81,5.57-.72,10.26-5.8,13.53-2.24,1.44-4.31,3.19-6.72,4.25-1.94.85-4.28.9-6.45,1.23a21.32,21.32,0,0,1-2.53,0,3.43,3.43,0,0,1-3.56-2.17,14.86,14.86,0,0,1-2-8.56,14,14,0,0,0-.32-3.33,1.37,1.37,0,0,0-2.24-.81C97.12,89.93,96.88,90.15,96.52,90.45Zm10.93,11.75c-3.1-2.72-3.1-2.72-4.7-2.15,1,1.94,2.07,2.45,4.69,2.15Z" style="fill:#fff"/><path d="M130,106.39c-.76,2.77-1.38,5.26-2.16,7.7-.18.58-.9,1-1.37,1.52-.47-.67-1.31-1.33-1.33-2a37.13,37.13,0,0,1,.31-6.24c.45-3.26,1.09-6.48,1.66-9.72a1.86,1.86,0,0,1,.25-.9c.66-.76,1.46-2.1,2.1-2a3.9,3.9,0,0,1,2.64,1.84c2.53,4.86,3.22,10.14,3.45,15.49a2.46,2.46,0,0,1-.37,1.49c-.84,1.18-1.71,1.11-2.32-.25s-.85-2.6-1.36-3.87C131.05,108.38,130.49,107.44,130,106.39Z" style="fill:#fff"/><path d="M121.15,153c-.28-.25-.79-.51-.78-.76a1.19,1.19,0,0,1,.72-.85c1.13-.34,5.68,1.85,6.15,2.93.08.18,0,.6-.13.65a1.11,1.11,0,0,1-.84,0c-.9-.49-1.74-1.1-2.65-1.56a18.66,18.66,0,0,0-2.2-.81Z" style="fill:#fff"/><path d="M138,155c1.37-2.53,3.65-2.28,5.4-3,.27-.11.83.43,1.25.67a6.19,6.19,0,0,1-1.06.72c-1.28.53-2.56,1-3.87,1.48A7.66,7.66,0,0,1,138,155Z" style="fill:#fff"/><path d="M154.4,100.64a8.5,8.5,0,0,1,6.21-2.18C158.94,100.45,157,100.86,154.4,100.64Z"/><path d="M107.44,102.2c-2.62.29-3.73-.21-4.7-2.15C104.34,99.48,104.34,99.48,107.44,102.2Z"/></g><g id="NAV_VIEWER"><path id="EYE" d="M129.78,76.92c27.62,0,46.87,17.51,55.24,27C176.88,114.54,157.63,135,129.78,135c-25.69,0-46.09-20.55-55.08-31.42C83.37,94,102.69,76.92,129.78,76.92Zm0-11.62c-44,0-69.83,38.07-69.83,38.07s28.1,43.3,69.83,43.3c44.95,0,69.66-43.3,69.66-43.3S174.5,65.3,129.78,65.3Zm-.08,29.06A11.63,11.63,0,1,1,118.07,106,11.63,11.63,0,0,1,129.7,94.36Zm0-11.63A23.25,23.25,0,1,0,153,106,23.26,23.26,0,0,0,129.7,82.73Z"/><rect x="52.31" y="47.13" width="163.71" height="125.05" style="opacity:0"/></g></g></svg>